<?xml version="1.0"?>
<svg xmlns="http://www.w3.org/2000/svg" xmlns:xlink="http://www.w3.org/1999/xlink" xmlns:svgjs="http://svgjs.com/svgjs" version="1.1" width="512" height="512" x="0" y="0" viewBox="0 0 469.33333 469.33333" style="enable-background:new 0 0 512 512" xml:space="preserve" class=""><g><path xmlns="http://www.w3.org/2000/svg" d="m250.667969 469.332031h-32c-20.589844 0-37.335938-16.746093-37.335938-37.332031v-144h-144c-20.585937 0-37.332031-16.746094-37.332031-37.332031v-32c0-20.589844 16.746094-37.335938 37.332031-37.335938h144v-144c0-20.585937 16.746094-37.332031 37.335938-37.332031h32c20.585937 0 37.332031 16.746094 37.332031 37.332031v144h144c20.585938 0 37.332031 16.746094 37.332031 37.335938v32c0 20.585937-16.746093 37.332031-37.332031 37.332031h-144v144c0 20.585938-16.746094 37.332031-37.332031 37.332031zm-213.335938-256c-2.941406 0-5.332031 2.390625-5.332031 5.335938v32c0 2.941406 2.390625 5.332031 5.332031 5.332031h160c8.832031 0 16 7.167969 16 16v160c0 2.945312 2.390625 5.332031 5.335938 5.332031h32c2.941406 0 5.332031-2.386719 5.332031-5.332031v-160c0-8.832031 7.167969-16 16-16h160c2.945312 0 5.332031-2.390625 5.332031-5.332031v-32c0-2.945313-2.386719-5.335938-5.332031-5.335938h-160c-8.832031 0-16-7.167969-16-16v-160c0-2.941406-2.390625-5.332031-5.332031-5.332031h-32c-2.945313 0-5.335938 2.390625-5.335938 5.332031v160c0 8.832031-7.167969 16-16 16zm0 0" fill="#ffffff" data-original="#000000" style="" class=""/></g></svg>
